HIERARCHY
ROOT root
{
	OFFSET 0.000000 0.000000 0.000000
	CHANNELS 6 Xposition Yposition Zposition Zrotation Yrotation Xrotation
	JOINT lhip
	{
		OFFSET 0.058581 -0.082280 -0.017664
		CHANNELS 3 Zrotation Yrotation Xrotation
		JOINT lknee
		{
			OFFSET 0.043451 -0.386469 0.008037
			CHANNELS 3 Zrotation Yrotation Xrotation
			JOINT lankle
			{
				OFFSET -0.014790 -0.426874 -0.037428
				CHANNELS 3 Zrotation Yrotation Xrotation
				JOINT ltoe
				{
					OFFSET 0.041054 -0.060286 0.122042
					CHANNELS 3 Zrotation Yrotation Xrotation
					End Site
					{
						OFFSET 0.000000 0.000000 0.000000
					}
				}
			}
		}
	}
	JOINT rhip
	{
		OFFSET -0.060310 -0.090513 -0.013543
		CHANNELS 3 Zrotation Yrotation Xrotation
		JOINT rknee
		{
			OFFSET -0.043257 -0.383688 -0.004843
			CHANNELS 3 Zrotation Yrotation Xrotation
			JOINT rankle
			{
				OFFSET 0.019056 -0.420046 -0.034562
				CHANNELS 3 Zrotation Yrotation Xrotation
				JOINT rtoe
				{
					OFFSET -0.034840 -0.062106 0.130323
					CHANNELS 3 Zrotation Yrotation Xrotation
					End Site
					{
						OFFSET 0.000000 0.000000 0.000000
					}
				}
			}
		}
	}
	JOINT lowerback
	{
		OFFSET 0.004439 0.124404 -0.038385
		CHANNELS 3 Zrotation Yrotation Xrotation
		JOINT upperback
		{
			OFFSET 0.004488 0.137956 0.026820
			CHANNELS 3 Zrotation Yrotation Xrotation
			JOINT chest
			{
				OFFSET -0.002265 0.056032 0.002855
				CHANNELS 3 Zrotation Yrotation Xrotation
				JOINT lowerneck
				{
					OFFSET -0.013390 0.211636 -0.033468
					CHANNELS 3 Zrotation Yrotation Xrotation
					JOINT upperneck
					{
						OFFSET 0.010113 0.088937 0.050410
						CHANNELS 3 Zrotation Yrotation Xrotation
						End Site
						{
							OFFSET 0.000000 0.000000 0.000000
						}
					}
				}
				JOINT lclavicle
				{
					OFFSET 0.071702 0.114000 -0.018898
					CHANNELS 3 Zrotation Yrotation Xrotation
					JOINT lshoulder
					{
						OFFSET 0.122921 0.045205 -0.019046
						CHANNELS 3 Zrotation Yrotation Xrotation
						JOINT lelbow
						{
							OFFSET 0.255332 -0.015649 -0.022946
							CHANNELS 3 Zrotation Yrotation Xrotation
							JOINT lwrist
							{
								OFFSET 0.265709 0.012698 -0.007375
								CHANNELS 3 Zrotation Yrotation Xrotation
								End Site
								{
									OFFSET 0.000000 0.000000 0.000000
								}
							}
						}
					}
				}
				JOINT rclavicle
				{
					OFFSET -0.082954 0.112472 -0.023707
					CHANNELS 3 Zrotation Yrotation Xrotation
					JOINT rshoulder
					{
						OFFSET -0.113228 0.046853 -0.008472
						CHANNELS 3 Zrotation Yrotation Xrotation
						JOINT relbow
						{
							OFFSET -0.260127 -0.014369 -0.031269
							CHANNELS 3 Zrotation Yrotation Xrotation
							JOINT rwrist
							{
								OFFSET -0.269108 0.006794 -0.006027
								CHANNELS 3 Zrotation Yrotation Xrotation
								End Site
								{
									OFFSET 0.000000 0.000000 0.000000
								}
							}
						}
					}
				}
			}
		}
	}
}
MOTION
Frames: 5
Frame Time: 0.033333
0.479686 0.183618 0.996670 67.721636 2.604784 109.305238 3.238816 10.116458 -13.551306 4.941194 9.642582 -10.201449 -1.689918 16.998106 0.974626 0.000000 -0.000000 0.000000 -3.036110 2.696544 -28.932720 -0.560969 10.906488 2.170001 3.713787 -2.357528 1.843319 0.000000 -0.000000 0.000000 4.486476 -5.072001 14.268062 7.207175 -12.582591 4.611300 7.336124 0.865451 -15.362242 -17.814702 2.277243 -12.948363 1.926484 12.912872 -10.666362 -7.313286 -59.784781 -5.862944 4.617566 -47.076375 -18.388773 19.808669 -27.664720 -34.617488 38.457097 12.171259 -8.371585 5.497687 52.016693 -5.792359 -12.733172 36.687078 -29.232729 -6.020429 29.388840 -31.439293 -4.853357 -0.770746 -18.584284 
0.478138 0.179741 0.996708 67.652681 2.770970 109.151800 3.691420 10.212129 -13.535119 5.039149 9.930719 -9.851751 -1.762051 16.764062 1.114722 0.000000 -0.000000 0.000000 -2.737542 2.926302 -28.772324 -0.437246 10.632141 2.141296 3.684717 -2.008808 1.726601 0.000000 -0.000000 0.000000 4.234286 -4.620901 14.100008 6.811770 -12.095731 5.149139 7.012166 0.952067 -15.536872 -17.371962 2.889888 -12.698700 2.029937 12.349861 -10.330742 -7.977338 -59.075784 -5.477577 3.716583 -46.642106 -18.139875 21.149416 -27.863721 -35.169829 36.163698 11.110475 -9.140855 6.804041 52.297885 -4.891172 -11.592067 38.613775 -29.686349 -8.300215 28.632171 -32.117062 -4.348437 0.276037 -18.047984 
0.476765 0.175879 0.996624 67.754491 3.090823 108.886963 4.345351 10.431274 -13.232305 5.043330 9.884432 -9.827200 -1.800860 16.744826 1.238507 0.000000 -0.000000 0.000000 -2.218587 3.167628 -28.423126 -0.393773 10.676509 2.082003 3.675019 -1.986983 1.685137 0.000000 -0.000000 0.000000 4.047743 -4.233805 14.199550 6.435594 -11.533098 5.293546 6.747396 1.236727 -15.517336 -16.882052 3.364945 -12.766046 1.971936 11.591483 -9.675393 -8.315705 -58.384144 -5.375189 3.419370 -46.422298 -18.067830 21.605365 -27.331943 -35.204834 34.251596 10.976738 -8.935449 7.752169 52.056948 -3.954748 -10.168410 39.099709 -29.060585 -9.702977 30.434980 -33.000078 -3.874772 -0.782516 -17.607689 
0.475328 0.173109 0.996052 67.955882 3.310018 108.868834 4.762955 10.578289 -13.243733 5.110203 9.818070 -9.883204 -1.979602 16.769178 1.306393 0.000000 -0.000000 0.000000 -1.955540 3.178844 -28.301797 -0.172148 10.588489 1.898910 3.833074 -1.996258 1.827763 0.000000 -0.000000 0.000000 3.859121 -3.788424 14.000773 6.021299 -11.169450 5.313897 6.503042 1.632558 -15.286876 -16.578831 3.681028 -13.031923 2.120756 10.881548 -8.912188 -8.116161 -57.765664 -5.862402 3.693985 -45.958008 -18.011298 20.954648 -26.614911 -36.453848 31.853746 10.665287 -10.643845 8.352262 51.878371 -3.221496 -9.861035 37.743063 -27.711624 -8.810589 34.159373 -33.199189 -4.961959 -1.031848 -17.395648 
0.473314 0.170517 0.995905 68.246831 3.524744 108.846055 5.182330 10.774561 -13.321862 5.157784 9.800540 -9.934656 -2.137884 16.606841 1.611146 0.000000 -0.000000 0.000000 -1.622776 3.334289 -28.139867 -0.143838 10.350919 1.633236 3.894121 -2.117878 2.023276 0.000000 -0.000000 0.000000 3.167624 -3.321682 14.191719 5.990236 -10.556529 4.826026 6.540014 1.910711 -14.819770 -16.199732 4.395757 -13.302005 2.184558 9.897764 -8.521323 -7.227536 -57.391661 -6.534911 3.892223 -45.267308 -18.130177 20.161429 -25.761637 -36.819201 28.068612 9.300752 -13.796313 9.183962 52.260436 -2.647573 -9.395319 38.000280 -27.222565 -9.519108 34.713810 -32.799404 -7.063172 -0.720683 -14.628450 
